<mxfile host="app.diagrams.net" modified="2023-01-31T11:26:37.260Z" agent="5.0 (X11; Linux x86_64) AppleWebKit/537.36 (KHTML, like Gecko) Chrome/106.0.0.0 Safari/537.36" etag="PgpaxdFk0DqTRjh1-D1K" version="20.8.13" type="github">
  <diagram name="Page-1" id="zFE875iKLAENkuUcsFWu">
    <mxGraphModel dx="2073" dy="1143" grid="1" gridSize="10" guides="1" tooltips="1" connect="1" arrows="1" fold="1" page="1" pageScale="1" pageWidth="850" pageHeight="1100" math="0" shadow="0">
      <root>
        <mxCell id="0" />
        <mxCell id="1" parent="0" />
        <mxCell id="jQFUmVb1L2Z8zy5BHqim-1" value="" style="swimlane;startSize=0;fillColor=#009900;strokeColor=#000000;" vertex="1" parent="1">
          <mxGeometry x="40" y="160" width="760" height="480" as="geometry" />
        </mxCell>
        <mxCell id="jQFUmVb1L2Z8zy5BHqim-5" value="" style="rounded=0;whiteSpace=wrap;html=1;" vertex="1" parent="jQFUmVb1L2Z8zy5BHqim-1">
          <mxGeometry width="760" height="40" as="geometry" />
        </mxCell>
        <mxCell id="jQFUmVb1L2Z8zy5BHqim-6" value="" style="shape=image;html=1;verticalAlign=top;verticalLabelPosition=bottom;labelBackgroundColor=#ffffff;imageAspect=0;aspect=fixed;image=https://cdn3.iconfinder.com/data/icons/arrows-set-12/512/reset-128.png" vertex="1" parent="jQFUmVb1L2Z8zy5BHqim-1">
          <mxGeometry x="10" y="6" width="28" height="28" as="geometry" />
        </mxCell>
        <mxCell id="jQFUmVb1L2Z8zy5BHqim-7" value="" style="rounded=0;whiteSpace=wrap;html=1;" vertex="1" parent="jQFUmVb1L2Z8zy5BHqim-1">
          <mxGeometry x="720" width="40" height="480" as="geometry" />
        </mxCell>
        <mxCell id="jQFUmVb1L2Z8zy5BHqim-8" value="" style="ellipse;whiteSpace=wrap;html=1;aspect=fixed;" vertex="1" parent="jQFUmVb1L2Z8zy5BHqim-1">
          <mxGeometry x="725" y="40" width="30" height="30" as="geometry" />
        </mxCell>
        <mxCell id="jQFUmVb1L2Z8zy5BHqim-9" value="" style="ellipse;whiteSpace=wrap;html=1;aspect=fixed;" vertex="1" parent="jQFUmVb1L2Z8zy5BHqim-1">
          <mxGeometry x="725" y="80" width="30" height="30" as="geometry" />
        </mxCell>
        <mxCell id="jQFUmVb1L2Z8zy5BHqim-10" value="" style="ellipse;whiteSpace=wrap;html=1;aspect=fixed;" vertex="1" parent="jQFUmVb1L2Z8zy5BHqim-1">
          <mxGeometry x="725" y="120" width="30" height="30" as="geometry" />
        </mxCell>
        <mxCell id="jQFUmVb1L2Z8zy5BHqim-11" value="" style="ellipse;whiteSpace=wrap;html=1;aspect=fixed;" vertex="1" parent="jQFUmVb1L2Z8zy5BHqim-1">
          <mxGeometry x="725" y="160" width="30" height="30" as="geometry" />
        </mxCell>
        <mxCell id="jQFUmVb1L2Z8zy5BHqim-12" value="" style="ellipse;whiteSpace=wrap;html=1;aspect=fixed;" vertex="1" parent="jQFUmVb1L2Z8zy5BHqim-1">
          <mxGeometry x="725" y="200" width="30" height="30" as="geometry" />
        </mxCell>
        <mxCell id="jQFUmVb1L2Z8zy5BHqim-13" value="" style="ellipse;whiteSpace=wrap;html=1;aspect=fixed;" vertex="1" parent="jQFUmVb1L2Z8zy5BHqim-1">
          <mxGeometry x="725" y="240" width="30" height="30" as="geometry" />
        </mxCell>
        <mxCell id="jQFUmVb1L2Z8zy5BHqim-14" value="" style="ellipse;whiteSpace=wrap;html=1;aspect=fixed;" vertex="1" parent="jQFUmVb1L2Z8zy5BHqim-1">
          <mxGeometry x="725" y="280" width="30" height="30" as="geometry" />
        </mxCell>
        <mxCell id="jQFUmVb1L2Z8zy5BHqim-15" value="" style="ellipse;whiteSpace=wrap;html=1;aspect=fixed;" vertex="1" parent="jQFUmVb1L2Z8zy5BHqim-1">
          <mxGeometry x="725" y="320" width="30" height="30" as="geometry" />
        </mxCell>
        <mxCell id="jQFUmVb1L2Z8zy5BHqim-16" value="" style="ellipse;whiteSpace=wrap;html=1;aspect=fixed;" vertex="1" parent="jQFUmVb1L2Z8zy5BHqim-1">
          <mxGeometry x="725" y="360" width="30" height="30" as="geometry" />
        </mxCell>
        <mxCell id="jQFUmVb1L2Z8zy5BHqim-17" value="" style="ellipse;whiteSpace=wrap;html=1;aspect=fixed;" vertex="1" parent="jQFUmVb1L2Z8zy5BHqim-1">
          <mxGeometry x="725" y="400" width="30" height="30" as="geometry" />
        </mxCell>
        <mxCell id="jQFUmVb1L2Z8zy5BHqim-110" value="" style="rounded=0;whiteSpace=wrap;html=1;fillColor=#a0522d;fontColor=#ffffff;strokeColor=none;" vertex="1" parent="jQFUmVb1L2Z8zy5BHqim-1">
          <mxGeometry y="80" width="680" height="40" as="geometry" />
        </mxCell>
        <mxCell id="jQFUmVb1L2Z8zy5BHqim-111" value="" style="rounded=0;whiteSpace=wrap;html=1;fillColor=#a0522d;fontColor=#ffffff;strokeColor=none;" vertex="1" parent="jQFUmVb1L2Z8zy5BHqim-1">
          <mxGeometry x="38" y="160" width="642" height="40" as="geometry" />
        </mxCell>
        <mxCell id="jQFUmVb1L2Z8zy5BHqim-113" value="" style="rounded=0;whiteSpace=wrap;html=1;fillColor=#a0522d;fontColor=#ffffff;strokeColor=none;" vertex="1" parent="jQFUmVb1L2Z8zy5BHqim-1">
          <mxGeometry x="38" y="240" width="640" height="40" as="geometry" />
        </mxCell>
        <mxCell id="jQFUmVb1L2Z8zy5BHqim-114" value="" style="rounded=0;whiteSpace=wrap;html=1;fillColor=#a0522d;fontColor=#ffffff;strokeColor=none;" vertex="1" parent="jQFUmVb1L2Z8zy5BHqim-1">
          <mxGeometry x="39" y="240" width="641" height="40" as="geometry" />
        </mxCell>
        <mxCell id="jQFUmVb1L2Z8zy5BHqim-115" value="" style="rounded=0;whiteSpace=wrap;html=1;fillColor=#a0522d;fontColor=#ffffff;strokeColor=none;" vertex="1" parent="jQFUmVb1L2Z8zy5BHqim-1">
          <mxGeometry x="38" y="320" width="642" height="40" as="geometry" />
        </mxCell>
        <mxCell id="jQFUmVb1L2Z8zy5BHqim-116" value="" style="rounded=0;whiteSpace=wrap;html=1;fillColor=#a0522d;fontColor=#ffffff;strokeColor=none;" vertex="1" parent="jQFUmVb1L2Z8zy5BHqim-1">
          <mxGeometry x="38" y="400" width="642" height="40" as="geometry" />
        </mxCell>
        <mxCell id="jQFUmVb1L2Z8zy5BHqim-117" value="" style="rounded=0;whiteSpace=wrap;html=1;fillColor=#a0522d;fontColor=#ffffff;strokeColor=none;" vertex="1" parent="jQFUmVb1L2Z8zy5BHqim-1">
          <mxGeometry x="640" y="80" width="40" height="120" as="geometry" />
        </mxCell>
        <mxCell id="jQFUmVb1L2Z8zy5BHqim-118" value="" style="rounded=0;whiteSpace=wrap;html=1;fillColor=#a0522d;fontColor=#ffffff;strokeColor=none;" vertex="1" parent="jQFUmVb1L2Z8zy5BHqim-1">
          <mxGeometry x="38" y="160" width="40" height="120" as="geometry" />
        </mxCell>
        <mxCell id="jQFUmVb1L2Z8zy5BHqim-119" value="" style="rounded=0;whiteSpace=wrap;html=1;fillColor=#a0522d;fontColor=#ffffff;strokeColor=none;" vertex="1" parent="jQFUmVb1L2Z8zy5BHqim-1">
          <mxGeometry x="640" y="240" width="40" height="120" as="geometry" />
        </mxCell>
        <mxCell id="jQFUmVb1L2Z8zy5BHqim-120" value="" style="rounded=0;whiteSpace=wrap;html=1;fillColor=#a0522d;fontColor=#ffffff;strokeColor=none;" vertex="1" parent="jQFUmVb1L2Z8zy5BHqim-1">
          <mxGeometry x="38" y="320" width="40" height="120" as="geometry" />
        </mxCell>
        <mxCell id="jQFUmVb1L2Z8zy5BHqim-121" value="" style="rounded=0;whiteSpace=wrap;html=1;fillColor=#a0522d;fontColor=#ffffff;strokeColor=none;" vertex="1" parent="1">
          <mxGeometry x="680" y="560" width="40" height="80" as="geometry" />
        </mxCell>
        <mxCell id="jQFUmVb1L2Z8zy5BHqim-122" value="&lt;font style=&quot;font-size: 20px;&quot;&gt;Reset button&lt;/font&gt;" style="rounded=1;whiteSpace=wrap;html=1;" vertex="1" parent="1">
          <mxGeometry x="-100" y="50" width="120" height="60" as="geometry" />
        </mxCell>
        <mxCell id="jQFUmVb1L2Z8zy5BHqim-125" value="" style="endArrow=classic;html=1;rounded=0;strokeColor=#171717;strokeWidth=5;fontSize=20;" edge="1" parent="1">
          <mxGeometry width="50" height="50" relative="1" as="geometry">
            <mxPoint x="10" y="110" as="sourcePoint" />
            <mxPoint x="50" y="150" as="targetPoint" />
          </mxGeometry>
        </mxCell>
      </root>
    </mxGraphModel>
  </diagram>
</mxfile>
